<svg width="512" height="512" viewBox="0 0 512 512" xmlns="http://www.w3.org/2000/svg" role="img" aria-label="解憂藥局後台">
  <rect width="512" height="512" rx="112" fill="transparent"/>
  <g fill="#111111">
    <path d="M136 178c0-24 19-43 43-43h154c24 0 43 19 43 43v198c0 24-19 43-43 43H179c-24 0-43-19-43-43V178zm43-10c-6 0-10 4-10 10v198c0 6 4 10 10 10h154c6 0 10-4 10-10V178c0-6-4-10-10-10H179z"/>
    <path d="M208 148c0-27 21-48 48-48s48 21 48 48h-31c0-10-7-17-17-17s-17 7-17 17h-31z"/>
    <path d="M205 325c0-8 6-14 14-14h4c8 0 14 6 14 14v34h-32v-34z"/>
    <path d="M246 280c0-8 6-14 14-14h4c8 0 14 6 14 14v79h-32v-79z"/>
    <path d="M287 235c0-8 6-14 14-14h4c8 0 14 6 14 14v124h-32V235z"/>
    <path d="M241 203c0-6 5-11 11-11h8c6 0 11 5 11 11v24h24c6 0 11 5 11 11v8c0 6-5 11-11 11h-24v24c0 6-5 11-11 11h-8c-6 0-11-5-11-11v-24h-24c-6 0-11-5-11-11v-8c0-6 5-11 11-11h24v-24z"/>
  </g>
</svg>
